<?xml version="1.0" encoding="utf-8"?>
<!-- Generator: Adobe Illustrator 16.0.0, SVG Export Plug-In . SVG Version: 6.00 Build 0)  -->
<!DOCTYPE svg PUBLIC "-//W3C//DTD SVG 1.1//EN" "http://www.w3.org/Graphics/SVG/1.1/DTD/svg11.dtd">
<svg version="1.1" id="Capa_1" xmlns="http://www.w3.org/2000/svg" xmlns:xlink="http://www.w3.org/1999/xlink" x="0px" y="0px"
	 width="96px" height="96px" viewBox="0 0 96 96" enable-background="new 0 0 96 96" xml:space="preserve">
<g>
	<g>
		<g>
			<g>
				<g>
					<g>
						<defs>
							<ellipse id="SVGID_2_" cx="47.998" cy="48" rx="40.517" ry="40"/>
						</defs>
						<clipPath id="SVGID_3_">
							<use xlink:href="#SVGID_2_"  overflow="visible"/>
						</clipPath>
						<path clip-path="url(#SVGID_3_)" d="M47.998,8c22.374,0,40.517,17.906,40.517,40S70.372,88,47.998,88
							C25.623,88,7.485,70.094,7.485,48S25.623,8,47.998,8z"/>
					</g>
				</g>
			</g>
		</g>
		<g>
			<g>
				<g>
					<g>
						<defs>
							<ellipse id="SVGID_4_" cx="47.998" cy="48" rx="40.517" ry="40"/>
						</defs>
						<clipPath id="SVGID_5_">
							<use xlink:href="#SVGID_4_"  overflow="visible"/>
						</clipPath>
						<g clip-path="url(#SVGID_5_)">
							<path fill="#0D6EFD" d="M60.238,44.242c-6.57,0-18.256,1.443-23.367,6.122c-5.473,5.05-0.362,7.569-1.095,12.976
								c-0.732,5.77-7.302,5.77-10.587,9.734c-3.285,4.327-3.648,13.693-1.825,18.379c7.667,19.464,47.454,13.699,61.328,5.051
								c10.95-6.854,19.71-25.597,15.33-38.205c-3.284-9.736-9.493-10.096-18.257-12.615c-6.926-2.165-18.244-2.882-25.183-1.441"/>
						</g>
					</g>
				</g>
			</g>
		</g>
		<g>
			<g>
				<g>
					<g>
						<defs>
							<ellipse id="SVGID_6_" cx="47.998" cy="48" rx="40.517" ry="40"/>
						</defs>
						<clipPath id="SVGID_7_">
							<use xlink:href="#SVGID_6_"  overflow="visible"/>
						</clipPath>
						<g clip-path="url(#SVGID_7_)">
							<path fill="#FFFFFF" d="M49.469-3.334c7.295,6.849,16.422,14.056,10.223,24.871c-2.928,5.405-9.495,7.929-13.876,12.612
								c-9.853,11.171,2.19,17.667,13.141,19.102c6.936,1.082,14.601-1.083,21.537,0.362c9.128,2.167,9.491,7.205,14.234,12.975
								c5.844,7.207,14.236,5.402,20.081-1.081c11.313-11.894,10.218-30.994,5.475-45.774c-4.75-14.054-13.872-26.309-28.841-29.195
								c-7.295-1.441-14.958-1.441-22.266-2.16c-4.748-0.726-12.045-3.243-16.056-0.362c-2.558,1.442-5.485,7.208-4.022,9.733"/>
						</g>
					</g>
				</g>
			</g>
		</g>
		<g>
			<path id="SVGID_1_" fill="none" stroke="#000000" stroke-width="2" stroke-miterlimit="10" d="M47.998,8
				c22.374,0,40.517,17.906,40.517,40S70.372,88,47.998,88C25.623,88,7.485,70.094,7.485,48S25.623,8,47.998,8z"/>
		</g>
	</g>
	<path fill="#FFFFFF" d="M34.278,25.099c-2.818,0-5.191,1.849-5.957,4.383l-6.03,0.769c-0.438-1.591-1.908-2.764-3.662-2.764
		c-2.096,0-3.794,1.677-3.794,3.748s1.696,3.748,3.794,3.748c2.089,0,3.776-1.664,3.796-3.717l5.679-0.725
		c-0.026,0.23-0.043,0.46-0.043,0.694c0,2.752,1.842,5.084,4.378,5.859l-1.079,3.29c-0.103-0.01-0.201-0.016-0.309-0.016
		c-1.65,0-2.99,1.319-2.99,2.951c0,1.633,1.339,2.954,2.99,2.954c1.648,0,2.993-1.324,2.993-2.954c0-1.168-0.689-2.176-1.689-2.654
		l1.099-3.36c0.266,0.035,0.539,0.061,0.815,0.061c3.432,0,6.214-2.748,6.214-6.132C40.486,27.846,37.702,25.099,34.278,25.099z"/>
	<g>
		<path d="M67.22,40.428c0.269,0.354,0.548,0.661,0.758,1.011c0.567,0.968,0.311,2.277-0.604,2.996
			c-0.869,0.681-1.75,1.348-2.652,1.999c-0.929,0.669-2.191,0.645-3.004-0.049c-0.253-0.214-0.44-0.492-0.627-0.758
			c-0.528-0.721-1.043-1.454-1.555-2.19c-0.345,0.158-0.68,0.236-1.047,0.163c-0.383-0.076-0.68-0.259-0.908-0.563
			c-0.45-0.588-0.896-1.177-1.326-1.778c-0.524-0.718-0.384-1.579,0.329-2.11c0.58-0.432,1.178-0.856,1.784-1.294
			c1.033,1.388,2.06,2.77,3.105,4.168c-0.225,0.167-0.45,0.332-0.678,0.504c0.612,0.862,1.209,1.717,1.818,2.568
			c0.219,0.299,0.645,0.379,1.032,0.171c0.27-0.148,0.511-0.338,0.75-0.519c0.633-0.473,1.264-0.953,1.893-1.431
			c0.348-0.261,0.505-0.635,0.389-0.969c-0.036-0.123-0.119-0.238-0.208-0.347c-0.297-0.385-0.603-0.767-0.913-1.146
			c-0.049-0.048-0.151-0.089-0.219-0.078c-0.993,0.168-1.974,0.347-2.965,0.537c-0.138,0.022-0.2-0.014-0.268-0.112
			c-1.033-1.375-2.062-2.756-3.089-4.127c-0.056-0.072-0.063-0.126-0.014-0.209c1.462-2.74,2.911-5.48,4.369-8.224
			c0.149-0.283,0.297-0.567,0.428-0.859c0.219-0.446,0.696-0.667,1.242-0.575c0.761,0.13,1.402,0.509,2.017,0.94
			c1.072,0.75,1.979,1.663,2.815,2.653c0.064,0.068,0.13,0.138,0.166,0.185c0.289-0.028,0.551-0.081,0.821-0.082
			c0.511-0.001,0.753,0.318,0.6,0.808c-0.08,0.247-0.203,0.482-0.319,0.742c0.644,0.934,1.228,1.927,1.686,2.999
			c0.313,0.727,0.563,1.473,0.645,2.266c0.049,0.425,0.045,0.852-0.168,1.248c-0.151,0.285-0.388,0.453-0.712,0.514
			c-1.434,0.251-2.863,0.509-4.29,0.761C67.942,40.304,67.592,40.362,67.22,40.428z M67.918,35.002
			c0.338,0.378,0.658,0.738,0.997,1.086c0.734,0.769,1.524,1.478,2.469,1.994c0.293,0.162,0.599,0.302,0.969,0.343
			c0.016-0.098,0.045-0.188,0.038-0.271c-0.033-0.339-0.051-0.677-0.13-1.004C72,36.118,71.529,35.176,71,34.257
			c-0.19-0.326-0.402-0.646-0.604-0.981C69.654,33.994,68.849,34.556,67.918,35.002z M66.645,33.213
			c0.357-0.319,0.721-0.654,1.109-0.951c0.391-0.3,0.813-0.554,1.235-0.832c-0.587-0.685-1.215-1.334-1.918-1.911
			c-0.536-0.442-1.091-0.854-1.736-1.115c-0.168-0.065-0.362-0.104-0.538-0.158C64.505,29.314,65.654,31.83,66.645,33.213z"/>
		<path d="M76.583,32.347c0.452-0.006,0.669,0.135,0.74,0.458c0.082,0.365-0.169,0.703-0.548,0.727
			c-0.843,0.056-1.693,0.104-2.544,0.156c-0.242,0.016-0.485,0.028-0.731,0.051c-0.337,0.028-0.621-0.191-0.66-0.514
			c-0.031-0.347,0.172-0.632,0.526-0.661c0.654-0.057,1.321-0.097,1.978-0.141C75.764,32.4,76.184,32.375,76.583,32.347z"/>
		<path d="M72.5,24.852c-0.05,0.113-0.071,0.233-0.138,0.335c-0.57,0.904-1.152,1.804-1.729,2.703
			c-0.207,0.313-0.577,0.399-0.858,0.216c-0.29-0.184-0.363-0.537-0.16-0.848c0.574-0.907,1.155-1.815,1.74-2.722
			c0.16-0.248,0.428-0.346,0.697-0.269C72.301,24.342,72.469,24.574,72.5,24.852z"/>
		<path d="M76.139,27.299c0.287,0.034,0.504,0.188,0.587,0.435c0.084,0.26,0.01,0.527-0.226,0.667
			c-0.679,0.41-1.358,0.806-2.036,1.204c-0.265,0.155-0.535,0.303-0.788,0.466c-0.375,0.239-0.755,0.066-0.9-0.183
			c-0.148-0.253-0.061-0.653,0.283-0.846c0.898-0.507,1.788-1.047,2.678-1.567C75.868,27.401,76.012,27.353,76.139,27.299z"/>
	</g>
	<g>
		<path fill="#FFFFFF" d="M59.607,79.674c-0.814,0-1.587,0-2.474,0c-0.015-0.339-0.053-0.668-0.053-1.004
			c-0.004-4.44-0.021-8.881,0.031-13.319c0.004-0.509,0.28-1.09,0.596-1.517c0.526-0.723,1.185-1.337,1.899-2.127
			C59.607,67.781,59.607,73.705,59.607,79.674z"/>
		<path fill="#FFFFFF" d="M56.035,79.685c-0.825,0-1.587,0-2.476,0c-0.02-0.325-0.056-0.626-0.062-0.932
			c-0.005-3.406-0.023-6.804,0.021-10.213c0.006-0.405,0.265-0.888,0.558-1.21c0.558-0.607,1.23-1.131,1.959-1.795
			C56.035,70.328,56.035,74.976,56.035,79.685z"/>
		<path fill="#FFFFFF" d="M58.837,59.806c-5.526,6.51-12.097,11.391-20.597,13.665c-0.095-0.35-0.167-0.634-0.262-0.974
			c3.552-0.87,6.806-2.252,9.741-4.229c2.175-1.45,4.246-3.087,6.224-4.792c1.488-1.277,2.77-2.8,4.161-4.242
			c-0.396-0.446-0.703-0.785-1.121-1.26c1.264-0.451,2.41-0.853,3.813-1.353c-0.255,1.414-0.476,2.609-0.721,3.973
			C59.594,60.29,59.257,60.083,58.837,59.806z"/>
		<path fill="#FFFFFF" d="M52.45,79.692c-0.839,0-1.611,0-2.509,0c0-1.063,0-2.081,0-3.099c0-1.732,0.034-3.469-0.012-5.211
			c-0.028-0.682,0.155-1.133,0.778-1.49c0.577-0.325,1.096-0.769,1.744-1.236C52.45,72.373,52.45,75.976,52.45,79.692z"/>
		<path fill="#FFFFFF" d="M48.925,71.114c0,2.934,0,5.711,0,8.546c-0.838,0-1.627,0-2.522,0c0-2.297-0.007-4.562,0.019-6.829
			c0.002-0.168,0.194-0.396,0.358-0.501C47.437,71.929,48.11,71.57,48.925,71.114z"/>
		<path fill="#FFFFFF" d="M45.387,73.066c0,2.267,0,4.398,0,6.601c-0.831,0-1.616,0-2.514,0c0-1.752-0.008-3.472,0.012-5.189
			c0-0.147,0.144-0.363,0.275-0.429C43.872,73.705,44.606,73.401,45.387,73.066z"/>
		<path fill="#FFFFFF" d="M39.396,75.274c0.813-0.238,1.585-0.471,2.438-0.723c0,1.724,0,3.37,0,5.096c-0.79,0-1.58,0-2.438,0
			C39.396,78.226,39.396,76.796,39.396,75.274z"/>
	</g>
</g>
</svg>
