<?xml version="1.0" encoding="utf-8"?>
<!-- Generator: Adobe Illustrator 16.0.0, SVG Export Plug-In . SVG Version: 6.00 Build 0)  -->
<!DOCTYPE svg PUBLIC "-//W3C//DTD SVG 1.1//EN" "http://www.w3.org/Graphics/SVG/1.1/DTD/svg11.dtd">
<svg version="1.1" id="Capa_1" xmlns="http://www.w3.org/2000/svg" xmlns:xlink="http://www.w3.org/1999/xlink" x="0px" y="0px"
	 width="322.005px" height="81px" viewBox="-1.502 1.691 322.005 81" enable-background="new -1.502 1.691 322.005 81"
	 xml:space="preserve">
<g>
	<g>
		<g>
			<g>
				<g>
					<g>
						<defs>
							<ellipse id="SVGID_1_" cx="39.503" cy="42.191" rx="40.006" ry="39.5"/>
						</defs>
						<clipPath id="SVGID_3_">
							<use xlink:href="#SVGID_1_"  overflow="visible"/>
						</clipPath>
						<ellipse clip-path="url(#SVGID_3_)" cx="39.503" cy="42.191" rx="40.006" ry="39.5"/>
					</g>
				</g>
			</g>
			<g>
				<g>
					<g>
						<defs>
							<ellipse id="SVGID_4_" cx="39.503" cy="42.191" rx="40.006" ry="39.5"/>
						</defs>
						<clipPath id="SVGID_5_">
							<use xlink:href="#SVGID_4_"  overflow="visible"/>
						</clipPath>
						<g clip-path="url(#SVGID_5_)">
							<path fill="#0D6EFD" d="M51.586,38.48c-6.488,0-18.023,1.424-23.07,6.049c-5.406,4.982-0.36,7.474-1.082,12.814
								c-0.721,5.695-7.21,5.695-10.455,9.609c-3.244,4.271-3.604,13.523-1.801,18.15c7.569,19.219,46.86,13.521,60.557,4.983
								c10.815-6.765,19.465-25.272,15.141-37.728c-3.244-9.611-9.374-9.967-18.026-12.457c-6.846-2.135-18.022-2.846-24.871-1.422"
								/>
						</g>
					</g>
				</g>
			</g>
			<g>
				<g>
					<g>
						<defs>
							<ellipse id="SVGID_6_" cx="39.503" cy="42.191" rx="40.006" ry="39.5"/>
						</defs>
						<clipPath id="SVGID_7_">
							<use xlink:href="#SVGID_6_"  overflow="visible"/>
						</clipPath>
						<g clip-path="url(#SVGID_7_)">
							<path fill="#FFFFFF" d="M40.954-8.5C48.163-1.738,57.172,5.38,51.046,16.058c-2.884,5.338-9.371,7.83-13.698,12.457
								c-9.732,11.031,2.163,17.441,12.978,18.862c6.847,1.067,14.417-1.067,21.265,0.354c9.013,2.137,9.374,7.119,14.059,12.813
								c5.768,7.12,14.056,5.337,19.826-1.065c11.174-11.748,10.092-30.609,5.407-45.201c-4.688-13.881-13.7-25.98-28.478-28.83
								c-7.208-1.422-14.776-1.422-21.987-2.135c-4.686-0.715-11.895-3.203-15.86-0.355c-2.523,1.423-5.407,7.117-3.966,9.607"/>
						</g>
					</g>
				</g>
			</g>
			<g>
				
					<ellipse id="SVGID_2_" fill="none" stroke="#000000" stroke-width="2" stroke-miterlimit="10" cx="39.503" cy="42.191" rx="40.006" ry="39.5"/>
			</g>
		</g>
		<path fill="#FFFFFF" d="M25.952,19.578c-2.78,0-5.124,1.824-5.879,4.326l-5.956,0.759c-0.432-1.571-1.884-2.729-3.615-2.729
			c-2.069,0-3.747,1.655-3.747,3.7c0,2.044,1.678,3.701,3.747,3.701c2.062,0,3.729-1.642,3.748-3.67l5.607-0.716
			c-0.026,0.227-0.042,0.453-0.042,0.685c0,2.722,1.818,5.022,4.322,5.786l-1.065,3.25c-0.1-0.012-0.2-0.016-0.304-0.016
			c-1.632,0-2.953,1.306-2.953,2.916c0,1.609,1.32,2.914,2.953,2.914c1.629,0,2.953-1.306,2.953-2.914
			c0-1.154-0.679-2.148-1.665-2.621l1.084-3.318c0.265,0.033,0.534,0.057,0.807,0.057c3.388,0,6.134-2.711,6.134-6.055
			C32.083,22.289,29.338,19.578,25.952,19.578z"/>
		<g>
			<path d="M58.485,34.715c0.264,0.349,0.542,0.651,0.744,0.996c0.563,0.955,0.306,2.25-0.593,2.956
				c-0.859,0.676-1.732,1.334-2.619,1.975c-0.917,0.662-2.165,0.641-2.971-0.049c-0.242-0.209-0.432-0.484-0.62-0.746
				c-0.519-0.713-1.022-1.436-1.535-2.162c-0.333,0.156-0.667,0.233-1.027,0.161c-0.376-0.075-0.677-0.259-0.904-0.559
				c-0.44-0.581-0.879-1.163-1.308-1.753c-0.515-0.709-0.378-1.561,0.327-2.084c0.577-0.426,1.163-0.846,1.759-1.278
				c1.023,1.368,2.04,2.735,3.071,4.115c-0.226,0.167-0.448,0.329-0.672,0.497c0.603,0.853,1.199,1.695,1.799,2.535
				c0.214,0.299,0.638,0.379,1.021,0.172c0.261-0.146,0.5-0.334,0.738-0.516c0.625-0.467,1.248-0.938,1.87-1.41
				c0.337-0.256,0.493-0.629,0.384-0.957c-0.042-0.121-0.124-0.235-0.207-0.342c-0.297-0.382-0.597-0.761-0.905-1.134
				c-0.043-0.049-0.148-0.089-0.214-0.077c-0.978,0.168-1.952,0.342-2.927,0.529c-0.134,0.025-0.197-0.01-0.269-0.109
				c-1.012-1.359-2.028-2.72-3.044-4.074c-0.052-0.069-0.061-0.125-0.016-0.207c1.441-2.707,2.878-5.412,4.314-8.119
				c0.147-0.281,0.291-0.564,0.429-0.85c0.213-0.443,0.685-0.66,1.225-0.568c0.75,0.127,1.385,0.502,1.989,0.928
				c1.057,0.74,1.958,1.643,2.782,2.62c0.06,0.069,0.123,0.137,0.164,0.185c0.282-0.031,0.544-0.08,0.805-0.082
				c0.51-0.002,0.749,0.314,0.599,0.797c-0.078,0.244-0.206,0.477-0.316,0.732c0.633,0.922,1.209,1.904,1.66,2.959
				c0.308,0.721,0.558,1.458,0.638,2.238c0.045,0.42,0.04,0.842-0.166,1.232c-0.149,0.282-0.382,0.45-0.704,0.508
				c-1.413,0.25-2.823,0.504-4.236,0.754C59.201,34.591,58.851,34.65,58.485,34.715z M59.173,29.357
				c0.338,0.371,0.652,0.729,0.983,1.072c0.729,0.756,1.51,1.458,2.442,1.969c0.29,0.162,0.591,0.297,0.953,0.338
				c0.017-0.094,0.049-0.185,0.042-0.268c-0.037-0.333-0.056-0.669-0.135-0.99c-0.25-1.021-0.715-1.951-1.239-2.857
				c-0.189-0.324-0.396-0.639-0.6-0.969C60.892,28.363,60.093,28.914,59.173,29.357z M57.912,27.59
				c0.361-0.315,0.715-0.647,1.098-0.94c0.388-0.295,0.808-0.547,1.22-0.821c-0.576-0.675-1.197-1.316-1.891-1.888
				c-0.527-0.436-1.076-0.842-1.717-1.098c-0.169-0.066-0.354-0.104-0.53-0.156C55.808,23.74,56.939,26.224,57.912,27.59z"/>
			<path d="M67.73,26.736c0.443-0.008,0.662,0.131,0.732,0.449c0.081,0.364-0.165,0.694-0.542,0.719
				c-0.837,0.055-1.675,0.104-2.514,0.154c-0.24,0.014-0.481,0.029-0.719,0.049c-0.333,0.028-0.615-0.188-0.653-0.508
				c-0.037-0.342,0.171-0.623,0.516-0.65c0.651-0.055,1.305-0.094,1.956-0.137C66.922,26.787,67.333,26.761,67.73,26.736z"/>
			<path d="M63.695,19.334c-0.045,0.11-0.07,0.231-0.135,0.329c-0.567,0.893-1.135,1.781-1.709,2.67
				c-0.201,0.309-0.565,0.395-0.848,0.213c-0.283-0.182-0.354-0.529-0.158-0.838c0.571-0.896,1.144-1.793,1.721-2.686
				c0.159-0.248,0.424-0.342,0.689-0.266C63.502,18.831,63.671,19.06,63.695,19.334z"/>
			<path d="M67.294,21.749c0.28,0.032,0.492,0.185,0.574,0.43c0.084,0.255,0.011,0.521-0.22,0.658
				c-0.667,0.403-1.34,0.795-2.012,1.188c-0.259,0.153-0.526,0.299-0.779,0.461c-0.368,0.236-0.742,0.065-0.884-0.18
				c-0.146-0.252-0.062-0.646,0.277-0.836c0.892-0.5,1.763-1.035,2.646-1.549C67.021,21.849,67.162,21.804,67.294,21.749z"/>
		</g>
		<g>
			<path fill="#FFFFFF" d="M50.962,73.469c-0.797,0-1.558,0-2.439,0c-0.016-0.333-0.048-0.661-0.048-0.995
				c-0.004-4.385-0.024-8.768,0.024-13.148c0.005-0.508,0.283-1.075,0.596-1.502c0.517-0.709,1.167-1.321,1.868-2.096
				C50.962,61.728,50.962,67.576,50.962,73.469z"/>
			<path fill="#FFFFFF" d="M47.439,73.476c-0.81,0-1.572,0-2.442,0c-0.022-0.316-0.057-0.619-0.058-0.92
				c-0.006-3.359-0.028-6.719,0.012-10.082c0.007-0.402,0.266-0.88,0.553-1.193c0.552-0.604,1.211-1.118,1.936-1.772
				C47.439,64.238,47.439,68.833,47.439,73.476z"/>
			<path fill="#FFFFFF" d="M50.205,53.851c-5.454,6.428-11.944,11.246-20.336,13.493c-0.096-0.351-0.168-0.627-0.258-0.966
				c3.508-0.854,6.717-2.223,9.622-4.172c2.146-1.434,4.187-3.049,6.143-4.73c1.469-1.266,2.729-2.765,4.111-4.193
				c-0.392-0.438-0.695-0.776-1.111-1.245c1.251-0.442,2.378-0.841,3.763-1.328c-0.254,1.392-0.47,2.569-0.714,3.92
				C50.955,54.331,50.623,54.12,50.205,53.851z"/>
			<path fill="#FFFFFF" d="M43.9,73.484c-0.828,0-1.587,0-2.481,0c0-1.047,0-2.051,0-3.056c0-1.714,0.039-3.431-0.012-5.144
				c-0.021-0.68,0.154-1.125,0.769-1.473c0.574-0.322,1.083-0.761,1.726-1.222C43.9,66.259,43.9,69.818,43.9,73.484z"/>
			<path fill="#FFFFFF" d="M40.417,65.015c0,2.898,0,5.641,0,8.443c-0.824,0-1.604,0-2.488,0c0-2.273-0.007-4.508,0.017-6.748
				c0.001-0.166,0.192-0.391,0.355-0.492C38.947,65.824,39.619,65.464,40.417,65.015z"/>
			<path fill="#FFFFFF" d="M36.925,66.943c0,2.238,0,4.348,0,6.519c-0.821,0-1.599,0-2.485,0c0-1.729-0.007-3.429,0.012-5.125
				c0.001-0.144,0.141-0.354,0.272-0.422C35.431,67.576,36.154,67.277,36.925,66.943z"/>
			<path fill="#FFFFFF" d="M31.008,69.125c0.803-0.235,1.568-0.466,2.408-0.716c0,1.703,0,3.33,0,5.035c-0.78,0-1.562,0-2.408,0
				C31.008,72.038,31.008,70.624,31.008,69.125z"/>
		</g>
	</g>
	<g>
		<g>
			<g>
				<path fill="#FFFFFF" d="M97.184,42.041c-0.231,0-0.365-0.115-0.401-0.346l-1.706-6.521c-0.035-0.158-0.061-0.283-0.08-0.382
					s-0.034-0.171-0.055-0.226c-0.017-0.068-0.027-0.113-0.027-0.131c-0.033-0.104-0.089-0.175-0.158-0.209
					c-0.072-0.035-0.117,0.043-0.132,0.235c-0.021,0.017-0.029,0.063-0.029,0.131c0,0.056-0.004,0.128-0.012,0.226
					c-0.01,0.099-0.015,0.225-0.015,0.381l-0.374,6.236c-0.034,0.385-0.25,0.578-0.637,0.578l-0.988-0.027
					c-0.25,0.035-0.412-0.019-0.494-0.157c-0.08-0.142-0.109-0.298-0.092-0.474l1.066-16.893c0.017-0.299,0.043-0.529,0.08-0.697
					c0.037-0.166,0.09-0.289,0.161-0.367c0.069-0.08,0.158-0.129,0.267-0.146c0.105-0.016,0.238-0.025,0.397-0.025
					c0.09,0.018,0.173,0.025,0.254,0.025c0.082,0,0.151,0.027,0.214,0.08c0.062,0.053,0.125,0.136,0.185,0.249
					c0.063,0.116,0.128,0.295,0.2,0.54c0.072,0.246,0.169,0.637,0.294,1.172c0.124,0.533,0.267,1.135,0.426,1.803
					c0.162,0.667,0.329,1.359,0.505,2.078c0.179,0.721,0.337,1.387,0.479,2l0.719,2.973c0.052,0.194,0.103,0.325,0.147,0.396
					c0.044,0.067,0.094,0.094,0.146,0.065c0.052-0.025,0.098-0.084,0.132-0.172c0.037-0.086,0.07-0.186,0.109-0.289
					c0.142-0.596,0.32-1.346,0.532-2.248c0.212-0.904,0.426-1.811,0.639-2.725c0.212-0.912,0.413-1.757,0.598-2.538
					c0.187-0.78,0.333-1.346,0.438-1.696c0.109-0.404,0.201-0.72,0.281-0.947c0.079-0.229,0.155-0.398,0.228-0.514
					c0.072-0.115,0.147-0.187,0.228-0.211c0.078-0.027,0.191-0.041,0.333-0.041c0.035,0,0.103-0.004,0.199-0.013
					c0.1-0.008,0.191,0.009,0.28,0.054c0.09,0.043,0.175,0.117,0.254,0.223c0.08,0.104,0.128,0.271,0.146,0.5l1.065,17.392
					c0.02,0.19-0.008,0.349-0.08,0.461c-0.069,0.112-0.23,0.17-0.478,0.17l-1.011,0.027c-0.179,0-0.326-0.058-0.441-0.171
					c-0.115-0.111-0.181-0.248-0.2-0.408l-0.345-6.314c-0.017-0.141-0.028-0.244-0.028-0.314c0-0.069,0-0.122,0-0.158
					c0-0.052-0.01-0.087-0.026-0.105c-0.053-0.278-0.141-0.297-0.267-0.051l-0.025,0.078c-0.02,0.035-0.037,0.094-0.054,0.17
					c-0.017,0.08-0.045,0.182-0.08,0.301l-1.681,6.631c-0.034,0.229-0.167,0.345-0.398,0.345h-0.69v-0.001H97.184z"/>
				<path fill="#FFFFFF" d="M110.8,22.885c0.479,0,0.932,0.093,1.357,0.276c0.427,0.183,0.794,0.436,1.107,0.748
					c0.309,0.316,0.559,0.685,0.745,1.107c0.187,0.42,0.279,0.865,0.279,1.34v12.367c0,0.473-0.095,0.92-0.279,1.342
					c-0.186,0.42-0.436,0.787-0.745,1.104c-0.313,0.314-0.68,0.564-1.107,0.751c-0.425,0.187-0.878,0.276-1.357,0.276
					c-0.481,0-0.933-0.094-1.36-0.276c-0.426-0.187-0.799-0.435-1.122-0.751c-0.32-0.314-0.571-0.684-0.757-1.104
					c-0.189-0.422-0.279-0.869-0.279-1.342V26.359c0-0.475,0.094-0.92,0.279-1.34c0.187-0.422,0.437-0.789,0.757-1.106
					c0.323-0.313,0.696-0.567,1.122-0.749C109.869,22.978,110.319,22.885,110.8,22.885z M112.106,26.437
					c0-0.369-0.129-0.681-0.387-0.935c-0.259-0.253-0.563-0.384-0.917-0.384c-0.373,0-0.69,0.13-0.947,0.384
					c-0.257,0.253-0.386,0.565-0.386,0.935v12.207c0,0.353,0.129,0.654,0.386,0.907s0.573,0.382,0.947,0.382
					c0.354,0,0.66-0.129,0.917-0.382c0.258-0.254,0.387-0.557,0.387-0.907V26.437z"/>
				<path fill="#FFFFFF" d="M123.271,33.541c0.303,0,0.564-0.107,0.787-0.329c0.222-0.22,0.333-0.478,0.333-0.776v-8.841
					c0-0.19,0.069-0.315,0.212-0.366c0.142-0.054,0.32-0.08,0.532-0.08h0.479c0.268,0,0.494,0.018,0.68,0.053
					c0.188,0.033,0.279,0.236,0.279,0.604v17.682c0,0.299-0.092,0.455-0.279,0.474c-0.187,0.017-0.412,0.026-0.68,0.026h-0.398
					c-0.233,0-0.427-0.021-0.588-0.064c-0.158-0.042-0.238-0.178-0.238-0.408V36.91c0-0.403-0.108-0.689-0.319-0.854
					c-0.213-0.166-0.498-0.252-0.853-0.252h-0.745c-0.304,0-0.565,0.1-0.787,0.29c-0.221,0.193-0.333,0.466-0.333,0.815v2.156
					c0,0.402-0.004,0.754-0.012,1.053c-0.01,0.298-0.013,0.553-0.013,0.763v0.631c0,0.21-0.071,0.341-0.215,0.396
					c-0.035,0-0.132,0.007-0.292,0.015c-0.162,0.009-0.333,0.011-0.521,0.011s-0.358,0-0.521,0c-0.159,0-0.267,0-0.319,0
					c-0.09-0.016-0.159-0.054-0.213-0.115c-0.053-0.063-0.079-0.189-0.079-0.383V23.806c0-0.367,0.095-0.568,0.279-0.604
					c0.189-0.035,0.417-0.053,0.683-0.053h0.479c0.197,0,0.367,0.021,0.52,0.065c0.15,0.043,0.228,0.163,0.228,0.354v8.867
					c0,0.301,0.102,0.557,0.307,0.776c0.204,0.222,0.475,0.329,0.814,0.329h0.796v-0.004h-0.003V33.541z"/>
				<path fill="#FFFFFF" d="M139.073,41.275c0.035,0.176,0.04,0.33,0.013,0.461c-0.026,0.133-0.129,0.195-0.307,0.195h-1.414
					c-0.141,0-0.233-0.046-0.28-0.143c-0.045-0.1-0.084-0.219-0.118-0.357l-0.318-2.156c-0.036-0.299-0.161-0.541-0.373-0.725
					c-0.212-0.182-0.462-0.275-0.746-0.275h-1.493c-0.284,0-0.539,0.094-0.762,0.275c-0.223,0.188-0.348,0.417-0.384,0.698
					l-0.324,2.183c-0.016,0.141-0.04,0.258-0.066,0.357c-0.027,0.097-0.109,0.143-0.251,0.143h-1.493
					c-0.179,0-0.28-0.063-0.308-0.195c-0.025-0.131-0.022-0.285,0.015-0.461l2.771-17.074c0.091-0.422,0.208-0.698,0.362-0.828
					c0.148-0.131,0.375-0.198,0.679-0.198h0.986c0.302,0,0.53,0.075,0.691,0.226c0.161,0.147,0.275,0.416,0.348,0.803
					L139.073,41.275z M133.557,34.751c-0.033,0.229,0.018,0.426,0.16,0.592c0.144,0.166,0.332,0.249,0.56,0.249h0.987
					c0.229,0,0.42-0.083,0.57-0.249c0.153-0.166,0.21-0.363,0.174-0.592l-0.905-6.396c-0.034-0.174-0.143-0.263-0.319-0.263
					c-0.178,0-0.275,0.089-0.293,0.263L133.557,34.751z"/>
				<path fill="#FFFFFF" d="M147.599,42.041c-0.229,0-0.366-0.115-0.4-0.346l-1.705-6.521c-0.035-0.158-0.061-0.283-0.081-0.382
					c-0.017-0.099-0.03-0.171-0.052-0.226c-0.02-0.068-0.026-0.113-0.026-0.131c-0.035-0.104-0.088-0.175-0.159-0.209
					c-0.072-0.035-0.117,0.043-0.135,0.235c-0.019,0.017-0.027,0.063-0.027,0.131c0,0.056-0.004,0.128-0.013,0.226
					c-0.01,0.099-0.014,0.225-0.014,0.381l-0.374,6.236c-0.035,0.385-0.25,0.578-0.639,0.578l-0.985-0.027
					c-0.25,0.035-0.414-0.019-0.496-0.157c-0.081-0.142-0.108-0.298-0.093-0.474l1.066-16.893c0.015-0.299,0.043-0.529,0.077-0.697
					c0.037-0.166,0.09-0.289,0.162-0.367c0.071-0.08,0.16-0.129,0.268-0.146c0.105-0.016,0.238-0.025,0.398-0.025
					c0.09,0.018,0.172,0.025,0.253,0.025s0.151,0.027,0.215,0.08c0.06,0.053,0.122,0.136,0.185,0.249
					c0.063,0.116,0.129,0.295,0.201,0.54c0.068,0.246,0.167,0.637,0.294,1.172c0.123,0.533,0.266,1.135,0.425,1.803
					c0.162,0.667,0.33,1.359,0.506,2.078c0.178,0.721,0.339,1.387,0.48,2l0.719,2.973c0.054,0.194,0.102,0.325,0.147,0.396
					c0.043,0.067,0.093,0.094,0.146,0.065c0.053-0.025,0.098-0.084,0.131-0.172c0.037-0.086,0.071-0.186,0.108-0.289
					c0.142-0.596,0.317-1.346,0.533-2.248c0.212-0.904,0.426-1.811,0.638-2.725c0.214-0.912,0.414-1.757,0.6-2.538
					c0.188-0.78,0.332-1.346,0.439-1.696c0.106-0.404,0.199-0.72,0.278-0.947c0.081-0.229,0.158-0.398,0.229-0.514
					c0.07-0.113,0.146-0.187,0.227-0.211c0.079-0.027,0.191-0.041,0.333-0.041c0.036,0,0.1-0.004,0.199-0.013
					c0.097-0.008,0.19,0.009,0.28,0.054c0.09,0.043,0.174,0.117,0.252,0.223c0.083,0.104,0.131,0.271,0.146,0.5l1.067,17.392
					c0.018,0.19-0.011,0.349-0.081,0.461c-0.071,0.112-0.229,0.17-0.479,0.17l-1.014,0.027c-0.176,0-0.324-0.058-0.439-0.171
					c-0.115-0.111-0.182-0.248-0.199-0.408l-0.346-6.314c-0.021-0.141-0.03-0.244-0.03-0.314c0-0.069,0-0.122,0-0.158
					c0-0.052-0.007-0.087-0.026-0.105c-0.054-0.278-0.141-0.297-0.267-0.051l-0.025,0.078c-0.021,0.035-0.035,0.094-0.054,0.17
					c-0.02,0.08-0.044,0.182-0.081,0.301l-1.678,6.631c-0.037,0.229-0.168,0.345-0.4,0.345h-0.688L147.599,42.041L147.599,42.041z"
					/>
				<path fill="#FFFFFF" d="M162.255,42.041c-0.229,0-0.363-0.115-0.399-0.346l-1.706-6.521c-0.033-0.158-0.063-0.283-0.079-0.382
					c-0.018-0.099-0.034-0.171-0.054-0.226c-0.018-0.068-0.026-0.113-0.026-0.131c-0.036-0.104-0.087-0.175-0.161-0.209
					c-0.07-0.035-0.114,0.043-0.133,0.235c-0.017,0.017-0.026,0.063-0.026,0.131c0,0.056-0.006,0.128-0.014,0.226
					c-0.009,0.099-0.013,0.225-0.013,0.381l-0.373,6.236c-0.036,0.385-0.25,0.578-0.64,0.578l-0.985-0.027
					c-0.25,0.035-0.414-0.019-0.495-0.157c-0.08-0.142-0.108-0.298-0.092-0.474l1.065-16.893c0.016-0.299,0.043-0.529,0.078-0.697
					c0.036-0.166,0.091-0.289,0.164-0.367c0.069-0.08,0.16-0.129,0.265-0.146c0.104-0.016,0.238-0.025,0.399-0.025
					c0.09,0.018,0.172,0.025,0.253,0.025c0.08,0,0.151,0.027,0.213,0.08c0.063,0.053,0.123,0.136,0.186,0.249
					c0.063,0.116,0.128,0.295,0.198,0.54c0.071,0.246,0.171,0.637,0.296,1.172c0.125,0.533,0.267,1.135,0.428,1.803
					c0.16,0.667,0.326,1.359,0.505,2.078c0.178,0.721,0.338,1.387,0.479,2l0.719,2.973c0.054,0.194,0.102,0.325,0.147,0.396
					c0.042,0.067,0.091,0.094,0.146,0.065c0.053-0.025,0.099-0.084,0.132-0.172c0.036-0.086,0.071-0.186,0.106-0.289
					c0.143-0.596,0.321-1.346,0.53-2.248c0.215-0.904,0.43-1.811,0.641-2.725c0.217-0.912,0.415-1.757,0.602-2.538
					c0.186-0.78,0.332-1.346,0.438-1.696c0.107-0.404,0.199-0.72,0.281-0.947c0.079-0.229,0.156-0.398,0.229-0.514
					c0.07-0.113,0.146-0.187,0.228-0.211c0.079-0.027,0.19-0.041,0.333-0.041c0.035,0,0.104-0.004,0.199-0.013
					c0.102-0.008,0.189,0.009,0.279,0.054c0.092,0.043,0.174,0.117,0.254,0.223c0.078,0.104,0.129,0.271,0.146,0.5l1.065,17.392
					c0.02,0.19-0.01,0.349-0.08,0.461s-0.229,0.17-0.479,0.17l-1.015,0.027c-0.179,0-0.322-0.058-0.438-0.171
					c-0.115-0.111-0.186-0.248-0.201-0.408l-0.347-6.314c-0.017-0.141-0.026-0.244-0.026-0.314c0-0.069,0-0.122,0-0.158
					c0-0.052-0.01-0.087-0.026-0.105c-0.054-0.278-0.142-0.297-0.265-0.051l-0.028,0.078c-0.019,0.035-0.037,0.094-0.054,0.17
					c-0.02,0.078-0.045,0.182-0.08,0.301l-1.68,6.631c-0.033,0.229-0.168,0.345-0.4,0.345h-0.689L162.255,42.041L162.255,42.041z"/>
				<path fill="#FFFFFF" d="M180.161,41.275c0.033,0.176,0.04,0.33,0.012,0.461c-0.023,0.133-0.128,0.195-0.306,0.195h-1.411
					c-0.143,0-0.23-0.046-0.279-0.143c-0.045-0.1-0.085-0.219-0.119-0.357l-0.317-2.156c-0.037-0.299-0.162-0.541-0.373-0.725
					c-0.214-0.184-0.46-0.275-0.748-0.275h-1.494c-0.282,0-0.536,0.094-0.758,0.275c-0.222,0.188-0.351,0.417-0.388,0.698
					l-0.316,2.183c-0.02,0.141-0.039,0.258-0.068,0.357c-0.025,0.097-0.109,0.143-0.252,0.143h-1.494
					c-0.178,0-0.279-0.063-0.307-0.195c-0.023-0.131-0.02-0.285,0.016-0.461l2.77-17.074c0.094-0.422,0.212-0.698,0.363-0.828
					c0.148-0.131,0.377-0.198,0.679-0.198h0.985c0.301,0,0.533,0.075,0.692,0.226c0.16,0.147,0.274,0.416,0.347,0.803
					L180.161,41.275z M174.646,34.751c-0.031,0.229,0.02,0.426,0.16,0.592c0.146,0.166,0.327,0.249,0.563,0.249h0.984
					c0.23,0,0.422-0.083,0.572-0.249c0.152-0.166,0.207-0.363,0.174-0.592l-0.906-6.396c-0.034-0.174-0.146-0.263-0.32-0.263
					s-0.273,0.089-0.293,0.263L174.646,34.751z"/>
				<path fill="#FFFFFF" d="M186.049,23.122c0.642,0,1.204,0.057,1.692,0.17c0.49,0.114,0.915,0.269,1.281,0.461
					c0.363,0.192,0.666,0.412,0.902,0.657c0.24,0.246,0.439,0.5,0.6,0.765c0.357,0.595,0.555,1.271,0.59,2.024v10.498
					c0,0.613-0.073,1.145-0.215,1.593c-0.144,0.446-0.334,0.827-0.572,1.146c-0.24,0.315-0.51,0.574-0.813,0.775
					c-0.302,0.202-0.613,0.355-0.936,0.461c-0.744,0.262-1.589,0.35-2.531,0.262h-1.117c-0.283,0-0.521-0.096-0.72-0.291
					c-0.192-0.189-0.293-0.436-0.293-0.734v-16.76c0-0.297,0.101-0.543,0.293-0.736c0.196-0.192,0.437-0.289,0.72-0.289
					L186.049,23.122L186.049,23.122z M188.981,27.831c0-0.524-0.07-0.952-0.213-1.274c-0.144-0.324-0.322-0.576-0.545-0.75
					c-0.224-0.176-0.464-0.299-0.722-0.369c-0.257-0.068-0.493-0.104-0.703-0.104c-0.216,0-0.393,0.076-0.532,0.225
					c-0.146,0.149-0.218,0.319-0.218,0.514V38.91c0,0.212,0.076,0.395,0.229,0.554c0.15,0.158,0.334,0.229,0.543,0.21
					c0.271-0.016,0.531-0.047,0.789-0.091c0.259-0.045,0.488-0.181,0.693-0.41c0.202-0.228,0.366-0.601,0.494-1.116
					c0.122-0.519,0.186-1.269,0.186-2.25v-7.974h-0.002V27.831z"/>
				<path fill="#FFFFFF" d="M211.463,41.931l-0.965-1.143c-1.414,1.08-3.069,1.619-4.968,1.619c-1.813,0-3.313-0.565-4.499-1.702
					c-1.183-1.136-1.772-2.565-1.772-4.298c0-1.354,0.354-2.481,1.066-3.387c0.71-0.904,1.879-1.697,3.499-2.384
					c-0.771-1.671-1.158-3.016-1.158-4.032c0-1.232,0.392-2.236,1.177-3.006c0.785-0.771,1.807-1.158,3.063-1.158
					c1.196,0,2.173,0.342,2.927,1.021c0.756,0.68,1.133,1.564,1.133,2.652c0,1.91-1.354,3.627-4.063,5.152
					c0.998,1.918,2.441,4.018,4.343,6.295c0.813-1.19,1.218-2.785,1.218-4.779l-0.025-0.977h2.564
					c-0.184,3.168-1.041,5.592-2.574,7.27c0.815,0.959,1.674,1.91,2.574,2.852h-3.539L211.463,41.931L211.463,41.931z
					 M209.368,39.326c-2.043-2.457-3.637-4.823-4.771-7.104c-1.777,0.865-2.666,2.086-2.666,3.661c0,1.284,0.394,2.378,1.184,3.276
					c0.787,0.9,1.748,1.352,2.875,1.352C207.079,40.509,208.206,40.115,209.368,39.326z M206.142,29.587
					c1.643-0.771,2.461-1.867,2.461-3.29c0-0.573-0.152-1.042-0.461-1.407c-0.308-0.363-0.701-0.546-1.187-0.546
					c-0.476,0-0.882,0.197-1.22,0.585c-0.336,0.389-0.506,0.863-0.506,1.418C205.231,27.146,205.534,28.226,206.142,29.587z"/>
				<path fill="#FFFFFF" d="M231.179,41.275c0.032,0.176,0.039,0.33,0.014,0.461c-0.027,0.133-0.129,0.195-0.309,0.195h-1.412
					c-0.143,0-0.233-0.046-0.277-0.143c-0.047-0.1-0.086-0.219-0.12-0.357l-0.321-2.156c-0.033-0.299-0.158-0.541-0.37-0.725
					c-0.214-0.184-0.461-0.275-0.747-0.275h-1.492c-0.283,0-0.537,0.094-0.762,0.275c-0.224,0.188-0.351,0.417-0.385,0.698
					l-0.318,2.183c-0.021,0.141-0.039,0.258-0.068,0.357c-0.023,0.097-0.107,0.143-0.252,0.143h-1.491
					c-0.179,0-0.278-0.063-0.306-0.195c-0.027-0.131-0.022-0.285,0.014-0.461l2.771-17.074c0.086-0.422,0.207-0.698,0.359-0.828
					c0.148-0.131,0.375-0.198,0.68-0.198h0.986c0.301,0,0.532,0.075,0.691,0.226c0.158,0.147,0.272,0.416,0.35,0.803L231.179,41.275
					z M225.662,34.751c-0.036,0.229,0.019,0.426,0.16,0.592c0.145,0.166,0.327,0.249,0.56,0.249h0.987
					c0.229,0,0.422-0.083,0.571-0.249c0.148-0.166,0.211-0.363,0.174-0.592l-0.906-6.396c-0.034-0.174-0.141-0.263-0.32-0.263
					c-0.176,0-0.275,0.089-0.291,0.263L225.662,34.751z"/>
				<path fill="#FFFFFF" d="M238.853,42.144c-1.402,0-2.434-0.686-3.092-2.053c-0.392-0.841-0.635-1.954-0.721-3.341
					c-0.02-0.247,0.023-0.461,0.121-0.646c0.097-0.186,0.352-0.277,0.759-0.277h0.401c0.389,0,0.631,0.078,0.717,0.236
					c0.09,0.157,0.145,0.353,0.161,0.58c0.034,0.666,0.104,1.199,0.214,1.604c0.107,0.404,0.213,0.711,0.316,0.92
					c0.164,0.354,0.345,0.566,0.549,0.645c0.205,0.08,0.395,0.117,0.572,0.117c0.407,0,0.746-0.164,1.015-0.5
					c0.282-0.455,0.452-1.044,0.503-1.761c0.056-1.019-0.023-1.838-0.237-2.461c-0.215-0.621-0.604-1.136-1.172-1.541l-0.161-0.104
					c-0.462-0.332-0.919-0.685-1.371-1.054c-0.453-0.368-0.854-0.776-1.213-1.224c-0.354-0.445-0.645-0.954-0.865-1.525
					c-0.224-0.568-0.336-1.24-0.336-2.013c0-1.298,0.305-2.374,0.907-3.234c0.69-0.999,1.669-1.499,2.933-1.499
					c0.765,0,1.401,0.271,1.92,0.815c0.211,0.209,0.386,0.45,0.518,0.724c0.137,0.271,0.234,0.551,0.307,0.84
					c0.07,0.291,0.121,0.571,0.146,0.844c0.029,0.271,0.04,0.514,0.04,0.723c0.017,0.281-0.021,0.479-0.104,0.593
					c-0.092,0.112-0.285,0.163-0.584,0.144h-0.402l-0.451-0.025c-0.196,0-0.324-0.042-0.387-0.132
					c-0.063-0.087-0.104-0.202-0.121-0.341c-0.031-0.332-0.062-0.616-0.078-0.842c-0.02-0.229-0.072-0.431-0.16-0.605
					c-0.145-0.229-0.275-0.369-0.398-0.421c-0.125-0.054-0.248-0.079-0.373-0.079c-0.248,0-0.438,0.043-0.57,0.131
					c-0.135,0.088-0.271,0.229-0.416,0.421c-0.318,0.456-0.479,1.104-0.479,1.946c0,0.458,0.063,0.857,0.188,1.211
					c0.125,0.352,0.307,0.675,0.547,0.973c0.238,0.299,0.536,0.592,0.895,0.883c0.355,0.289,0.771,0.609,1.252,0.959l0.133,0.106
					c1.031,0.754,1.715,1.71,2.052,2.867c0.249,0.806,0.34,1.823,0.271,3.053c-0.057,1.175-0.357,2.14-0.908,2.894
					c-0.34,0.474-0.75,0.834-1.237,1.078C239.952,42.021,239.422,42.144,238.853,42.144z"/>
				<path fill="#FFFFFF" d="M250.497,22.885c0.479,0,0.934,0.093,1.359,0.276c0.428,0.183,0.795,0.436,1.105,0.748
					c0.311,0.316,0.561,0.685,0.744,1.107c0.188,0.42,0.279,0.865,0.279,1.34v12.367c0,0.473-0.094,0.92-0.279,1.342
					c-0.186,0.42-0.434,0.787-0.744,1.104c-0.313,0.314-0.682,0.564-1.105,0.751c-0.428,0.185-0.881,0.276-1.359,0.276
					s-0.932-0.094-1.359-0.276c-0.427-0.187-0.8-0.435-1.113-0.751c-0.323-0.314-0.577-0.684-0.766-1.104
					c-0.188-0.422-0.279-0.869-0.279-1.342V26.359c0-0.475,0.093-0.92,0.279-1.34c0.188-0.422,0.439-0.789,0.766-1.106
					c0.313-0.313,0.688-0.567,1.113-0.749C249.565,22.978,250.019,22.885,250.497,22.885z M251.804,26.437
					c0-0.369-0.129-0.681-0.387-0.935c-0.258-0.253-0.564-0.384-0.918-0.384c-0.375,0-0.693,0.13-0.945,0.384
					c-0.26,0.253-0.388,0.565-0.388,0.935v12.207c0,0.353,0.128,0.654,0.388,0.907c0.252,0.253,0.569,0.382,0.945,0.382
					c0.354,0,0.66-0.129,0.918-0.382c0.258-0.254,0.387-0.557,0.387-0.907V26.437z"/>
				<path fill="#FFFFFF" d="M258.89,27.357c0-0.807,0.125-1.535,0.373-2.182c0.106-0.264,0.241-0.525,0.413-0.789
					c0.169-0.265,0.378-0.5,0.625-0.711c0.253-0.21,0.544-0.378,0.882-0.501c0.336-0.123,0.737-0.185,1.197-0.185
					c0.605,0,1.114,0.092,1.535,0.275c0.415,0.186,0.751,0.426,0.996,0.723c0.251,0.3,0.441,0.638,0.574,1.015
					c0.134,0.377,0.227,0.749,0.279,1.116c0.053,0.371,0.078,0.723,0.078,1.066c0,0.342,0,0.619,0,0.83
					c0,0.104-0.039,0.193-0.121,0.264c-0.078,0.068-0.17,0.104-0.275,0.104h-1.147c-0.284,0-0.429-0.139-0.429-0.421
					c0-0.229-0.008-0.508-0.025-0.843c-0.019-0.332-0.063-0.653-0.146-0.959c-0.077-0.309-0.203-0.569-0.369-0.789
					c-0.17-0.221-0.409-0.328-0.707-0.328c-0.32-0.02-0.596,0.043-0.829,0.184c-0.19,0.123-0.374,0.338-0.545,0.646
					c-0.168,0.308-0.251,0.759-0.251,1.354V37.75c0,0.613,0.061,1.082,0.197,1.406c0.136,0.326,0.291,0.558,0.467,0.697
					c0.193,0.176,0.429,0.271,0.693,0.291c0.371,0,0.672-0.125,0.894-0.369c0.226-0.248,0.392-0.541,0.508-0.883
					c0.115-0.344,0.19-0.697,0.224-1.066c0.037-0.367,0.058-0.674,0.058-0.92c0-0.28,0.142-0.42,0.424-0.42h1.04
					c0.124,0,0.227,0.039,0.307,0.117c0.082,0.08,0.119,0.172,0.119,0.276c0.021,0.333,0.008,0.795-0.037,1.381
					c-0.048,0.587-0.188,1.169-0.429,1.748c-0.239,0.58-0.608,1.084-1.104,1.513c-0.498,0.428-1.195,0.645-2.104,0.645
					c-0.639-0.02-1.201-0.148-1.681-0.395c-0.429-0.209-0.813-0.547-1.16-1.013c-0.349-0.465-0.521-1.136-0.521-2.014V27.357H258.89
					z"/>
				<path fill="#FFFFFF" d="M271.521,41.96c-0.176,0-0.318-0.035-0.438-0.104c-0.116-0.068-0.173-0.191-0.173-0.369V23.543
					c0-0.175,0.057-0.291,0.173-0.343c0.119-0.051,0.265-0.079,0.438-0.079h0.987c0.177,0,0.323,0.04,0.438,0.12
					c0.113,0.078,0.172,0.205,0.172,0.381v17.863c0,0.177-0.059,0.299-0.172,0.367c-0.115,0.069-0.264,0.105-0.438,0.105
					L271.521,41.96L271.521,41.96z"/>
				<path fill="#FFFFFF" d="M285.882,41.275c0.037,0.176,0.04,0.33,0.016,0.461c-0.026,0.133-0.129,0.195-0.306,0.195h-1.413
					c-0.145,0-0.232-0.046-0.277-0.143c-0.043-0.1-0.084-0.219-0.119-0.357l-0.319-2.156c-0.036-0.299-0.159-0.541-0.375-0.725
					c-0.211-0.184-0.461-0.275-0.745-0.275h-1.49c-0.287,0-0.537,0.094-0.763,0.275c-0.222,0.188-0.351,0.417-0.388,0.698
					l-0.316,2.183c-0.02,0.141-0.037,0.258-0.064,0.357c-0.027,0.097-0.111,0.143-0.252,0.143h-1.494
					c-0.182,0-0.281-0.063-0.307-0.195c-0.028-0.131-0.024-0.285,0.013-0.461l2.771-17.074c0.09-0.422,0.209-0.698,0.361-0.828
					c0.148-0.131,0.376-0.198,0.678-0.198h0.985c0.303,0,0.534,0.075,0.694,0.226c0.16,0.147,0.272,0.416,0.348,0.803
					L285.882,41.275z M280.369,34.751c-0.035,0.229,0.019,0.426,0.162,0.592c0.143,0.166,0.325,0.249,0.559,0.249h0.985
					c0.232,0,0.423-0.083,0.57-0.249c0.152-0.166,0.211-0.363,0.174-0.592l-0.903-6.396c-0.036-0.174-0.146-0.263-0.319-0.263
					c-0.179,0-0.273,0.089-0.296,0.263L280.369,34.751z"/>
				<path fill="#FFFFFF" d="M291.772,23.122c0.641,0,1.203,0.057,1.693,0.17c0.49,0.114,0.913,0.269,1.279,0.461
					c0.365,0.192,0.667,0.412,0.906,0.657c0.236,0.246,0.438,0.5,0.599,0.765c0.354,0.595,0.554,1.271,0.586,2.024v10.498
					c0,0.613-0.067,1.145-0.213,1.593c-0.146,0.446-0.334,0.827-0.573,1.146c-0.238,0.316-0.511,0.574-0.811,0.775
					c-0.303,0.202-0.613,0.355-0.934,0.461c-0.75,0.262-1.591,0.35-2.533,0.262h-1.119c-0.286,0-0.521-0.096-0.721-0.291
					c-0.193-0.189-0.291-0.436-0.291-0.734v-16.76c0-0.297,0.098-0.543,0.291-0.736c0.197-0.192,0.435-0.289,0.721-0.289
					L291.772,23.122L291.772,23.122z M294.707,27.831c0-0.524-0.073-0.952-0.215-1.274c-0.144-0.324-0.325-0.576-0.546-0.75
					c-0.227-0.176-0.463-0.299-0.723-0.369c-0.259-0.068-0.492-0.104-0.705-0.104c-0.211,0-0.39,0.076-0.529,0.225
					c-0.145,0.149-0.217,0.319-0.217,0.514V38.91c0,0.212,0.078,0.395,0.229,0.554c0.149,0.158,0.333,0.229,0.546,0.21
					c0.266-0.016,0.527-0.047,0.785-0.091c0.257-0.045,0.486-0.181,0.693-0.41c0.201-0.228,0.365-0.601,0.49-1.116
					c0.127-0.519,0.189-1.269,0.189-2.25L294.707,27.831L294.707,27.831z"/>
				<path fill="#FFFFFF" d="M305.177,22.885c0.479,0,0.936,0.093,1.361,0.276c0.425,0.183,0.791,0.436,1.104,0.748
					c0.312,0.316,0.563,0.685,0.75,1.107c0.184,0.42,0.278,0.865,0.278,1.34v12.367c0,0.473-0.097,0.92-0.278,1.342
					c-0.188,0.42-0.438,0.787-0.75,1.104c-0.313,0.314-0.681,0.564-1.104,0.751c-0.428,0.185-0.882,0.276-1.361,0.276
					c-0.479,0-0.933-0.094-1.359-0.276c-0.426-0.187-0.799-0.435-1.115-0.751c-0.322-0.314-0.575-0.684-0.764-1.104
					c-0.188-0.422-0.278-0.869-0.278-1.342V26.359c0-0.475,0.095-0.92,0.278-1.34c0.188-0.422,0.438-0.789,0.764-1.106
					c0.316-0.313,0.689-0.567,1.115-0.749C304.244,22.978,304.698,22.885,305.177,22.885z M306.481,26.437
					c0-0.369-0.127-0.681-0.385-0.935c-0.258-0.253-0.563-0.384-0.92-0.384c-0.371,0-0.688,0.13-0.943,0.384
					c-0.26,0.253-0.387,0.565-0.387,0.935v12.207c0,0.353,0.127,0.654,0.387,0.907c0.256,0.253,0.57,0.382,0.943,0.382
					c0.359,0,0.662-0.129,0.92-0.382c0.258-0.254,0.385-0.557,0.385-0.907V26.437z"/>
				<path fill="#FFFFFF" d="M316.74,42.144c-1.401,0-2.433-0.686-3.093-2.053c-0.391-0.841-0.629-1.954-0.717-3.341
					c-0.02-0.247,0.022-0.461,0.116-0.646c0.101-0.186,0.354-0.277,0.761-0.277h0.4c0.391,0,0.634,0.078,0.721,0.236
					c0.09,0.157,0.141,0.353,0.16,0.58c0.035,0.666,0.104,1.199,0.215,1.604c0.104,0.404,0.211,0.711,0.319,0.92
					c0.158,0.354,0.339,0.566,0.546,0.645c0.205,0.08,0.396,0.117,0.569,0.117c0.411,0,0.749-0.164,1.015-0.5
					c0.284-0.455,0.453-1.044,0.506-1.761c0.053-1.019-0.025-1.838-0.236-2.461c-0.217-0.621-0.605-1.136-1.174-1.541l-0.16-0.104
					c-0.461-0.332-0.918-0.685-1.371-1.054c-0.452-0.368-0.857-0.776-1.213-1.224c-0.357-0.445-0.646-0.954-0.867-1.525
					c-0.223-0.568-0.33-1.24-0.33-2.013c0-1.298,0.299-2.374,0.9-3.234c0.694-0.999,1.674-1.499,2.933-1.499
					c0.764,0,1.403,0.271,1.919,0.815c0.216,0.209,0.388,0.45,0.521,0.724c0.133,0.271,0.232,0.551,0.307,0.84
					c0.068,0.291,0.119,0.571,0.146,0.844c0.025,0.271,0.038,0.514,0.038,0.723c0.019,0.281-0.019,0.479-0.104,0.593
					c-0.09,0.112-0.285,0.163-0.586,0.144h-0.397l-0.454-0.025c-0.195,0-0.322-0.042-0.386-0.132
					c-0.063-0.087-0.103-0.202-0.117-0.341c-0.037-0.332-0.063-0.616-0.084-0.842c-0.019-0.229-0.071-0.431-0.159-0.605
					c-0.144-0.229-0.277-0.369-0.396-0.421c-0.129-0.054-0.254-0.079-0.375-0.079c-0.249,0-0.438,0.043-0.574,0.131
					c-0.132,0.088-0.27,0.229-0.409,0.421c-0.319,0.456-0.481,1.104-0.481,1.946c0,0.458,0.062,0.857,0.188,1.211
					c0.125,0.352,0.306,0.675,0.545,0.973c0.241,0.299,0.537,0.592,0.896,0.883c0.355,0.289,0.771,0.609,1.254,0.959l0.133,0.106
					c1.031,0.754,1.713,1.71,2.051,2.867c0.247,0.806,0.336,1.823,0.266,3.053c-0.049,1.175-0.354,2.14-0.903,2.894
					c-0.337,0.474-0.749,0.834-1.237,1.078C317.842,42.021,317.31,42.144,316.74,42.144z"/>
			</g>
		</g>
		<g>
			<path fill="#FFFFFF" d="M93.37,48.808h3.445c1.896,0,2.788,1.105,2.788,2.459c0,0.99-0.445,1.707-1.31,1.988
				c1.31,0.313,2.087,1.296,2.087,2.621c0,1.666-1.043,2.941-3.205,2.941h-3.803v-10.01H93.37z M96.888,52.906
				c1.177,0,1.639-0.662,1.639-1.575c0-0.916-0.492-1.578-1.79-1.578H94.44v3.153H96.888L96.888,52.906z M97.096,57.878
				c1.55,0,2.191-0.867,2.191-2.029c0-1.181-0.7-2.035-2.251-2.035h-2.594v4.063L97.096,57.878L97.096,57.878z"/>
			<path fill="#FFFFFF" d="M103.979,58.308l-2.625-5.58h1.148l1.743,3.781c0.166,0.383,0.283,1.029,0.283,1.029
				s0.105-0.646,0.285-1.029l1.609-3.781h1.071l-4.025,9.215h-1.074L103.979,58.308z"/>
			<path fill="#FFFFFF" d="M119.364,58.82h-1.267l-1.954-2.735c-0.344,0.06-0.717,0.088-1.074,0.088h-1.209v2.653h-1.072V48.812
				h2.283c2.773,0,4.204,1.532,4.204,3.695c0,1.499-0.715,2.68-2.118,3.239L119.364,58.82z M115.011,55.244
				c2.295,0,3.145-1.161,3.145-2.735c0-1.575-0.866-2.756-3.145-2.756h-1.151v5.492L115.011,55.244L115.011,55.244z"/>
			<path fill="#FFFFFF" d="M121.67,48.808h3.443c1.896,0,2.789,1.105,2.789,2.459c0,0.99-0.445,1.707-1.311,1.988
				c1.311,0.313,2.088,1.296,2.088,2.621c0,1.666-1.045,2.941-3.205,2.941h-3.802v-10.01H121.67z M125.19,52.906
				c1.176,0,1.639-0.662,1.639-1.575c0-0.916-0.491-1.578-1.789-1.578h-2.298v3.153H125.19L125.19,52.906z M125.399,57.878
				c1.55,0,2.191-0.867,2.191-2.029c0-1.181-0.7-2.035-2.252-2.035h-2.597v4.063L125.399,57.878L125.399,57.878z"/>
			<path fill="#FFFFFF" d="M130.746,48.695h0.147l4.713,5.814l4.681-5.814h0.167V58.82h-1.046v-6.607
				c0-0.459,0.047-1.148,0.047-1.148s-0.388,0.646-0.717,1.043l-3.071,3.83h-0.18l-3.026-3.83c-0.326-0.396-0.731-1.043-0.731-1.043
				s0.063,0.689,0.063,1.148v6.607h-1.044L130.746,48.695L130.746,48.695z"/>
			<path fill="#FFFFFF" d="M146.752,48.808h3.441c1.895,0,2.789,1.105,2.789,2.459c0,0.99-0.446,1.707-1.311,1.988
				c1.311,0.313,2.088,1.296,2.088,2.621c0,1.666-1.044,2.941-3.207,2.941h-3.801L146.752,48.808L146.752,48.808z M150.271,52.906
				c1.177,0,1.639-0.662,1.639-1.575c0-0.916-0.493-1.578-1.788-1.578h-2.3v3.153H150.271L150.271,52.906z M150.48,57.878
				c1.548,0,2.189-0.867,2.189-2.029c0-1.181-0.7-2.035-2.251-2.035h-2.595v4.063L150.48,57.878L150.48,57.878z"/>
			<path fill="#FFFFFF" d="M155.739,55.406v-6.598h1.073v6.522c0,1.782,0.982,2.667,2.564,2.667c1.564,0,2.564-0.887,2.564-2.667
				v-6.522h1.074v6.598c0,2.341-1.58,3.533-3.637,3.533C157.305,58.939,155.739,57.747,155.739,55.406z"/>
			<path fill="#FFFFFF" d="M164.737,56.913l0.898-0.476c0.477,0.838,1.176,1.563,2.607,1.563c1.178,0,2.102-0.648,2.102-1.708
				c0-1.019-0.64-1.535-1.906-2.093l-0.806-0.366c-1.446-0.646-2.237-1.341-2.237-2.737c0-1.441,1.149-2.398,2.67-2.398
				c1.357,0,2.207,0.617,2.744,1.5l-0.865,0.529c-0.389-0.617-0.922-1.086-1.879-1.086c-0.998,0-1.61,0.571-1.61,1.426
				c0,0.885,0.479,1.28,1.61,1.797l0.805,0.367c1.689,0.734,2.553,1.559,2.553,3.061c0,1.648-1.326,2.65-3.146,2.65
				C166.333,58.939,165.276,57.967,164.737,56.913z"/>
			<path fill="#FFFFFF" d="M173.651,48.808h1.09V58.82h-1.09V48.808z"/>
			<path fill="#FFFFFF" d="M179.181,51.855c-0.281-0.334-0.699-0.924-0.699-0.924s0.09,0.704,0.09,1.131v6.758h-1.016V48.71h0.178
				l6.056,7.064c0.283,0.338,0.7,0.929,0.7,0.929s-0.074-0.706-0.074-1.134v-6.76h0.999v10.115h-0.179L179.181,51.855z"/>
			<path fill="#FFFFFF" d="M188.183,48.808h6.172v0.943h-5.101v4.699h4.55v0.927h-4.55v2.503h5.312v0.943h-6.383V48.808
				L188.183,48.808z"/>
			<path fill="#FFFFFF" d="M195.872,56.913l0.896-0.476c0.477,0.838,1.174,1.563,2.606,1.563c1.179,0,2.103-0.648,2.103-1.708
				c0-1.019-0.641-1.535-1.906-2.093l-0.807-0.366c-1.447-0.646-2.236-1.341-2.236-2.737c0-1.441,1.15-2.398,2.671-2.398
				c1.356,0,2.206,0.617,2.741,1.5l-0.86,0.529c-0.39-0.617-0.927-1.086-1.881-1.086c-0.998,0-1.608,0.571-1.608,1.426
				c0,0.885,0.477,1.28,1.608,1.797l0.805,0.367c1.688,0.734,2.55,1.559,2.55,3.061c0,1.648-1.324,2.65-3.146,2.65
				C197.467,58.939,196.407,57.967,195.872,56.913z"/>
			<path fill="#FFFFFF" d="M203.862,56.913l0.893-0.476c0.479,0.838,1.182,1.563,2.609,1.563c1.18,0,2.104-0.648,2.104-1.708
				c0-1.019-0.64-1.535-1.906-2.093l-0.808-0.366c-1.444-0.646-2.233-1.341-2.233-2.737c0-1.441,1.146-2.398,2.666-2.398
				c1.359,0,2.209,0.617,2.748,1.5l-0.867,0.529c-0.389-0.617-0.924-1.086-1.881-1.086c-0.996,0-1.608,0.571-1.608,1.426
				c0,0.885,0.479,1.28,1.608,1.797l0.808,0.367c1.687,0.734,2.552,1.559,2.552,3.061c0,1.648-1.328,2.65-3.146,2.65
				C205.455,58.939,204.397,57.967,203.862,56.913z"/>
		</g>
	</g>
</g>
</svg>
